M48
INCH,TZ
T1C0.016
T2C0.032
T3C0.039
T4C0.039
T5C0.047
T6C0.138
%
G90
G05
T1
X40100Y-41000
X41400Y-41000
X41800Y-41800
X43025Y-50825
X43600Y-41400
X45425Y-53625
X46525Y-49825
X46525Y-50125
X46825Y-51025
X48000Y-45700
X48425Y-53225
X48700Y-48400
X49725Y-50025
X50000Y-45200
X50425Y-52725
X51600Y-47400
X51900Y-48300
X51900Y-48600
X53000Y-44800
X54825Y-57025
X55400Y-47600
X56625Y-56625
X57025Y-57425
X58325Y-57425
T2
X41316Y-48300
X43284Y-48300
X55141Y-50125
X57109Y-50125
T3
X40025Y-53263
X40025Y-55625
X41600Y-53263
X41600Y-55625
X48216Y-40744
X48241Y-57681
X49200Y-40744
X49225Y-57681
X50184Y-40744
X50209Y-57681
X56825Y-42800
X56825Y-45162
X58400Y-42800
X58400Y-45162
T4
X40800Y-43800
X40800Y-44800
X57625Y-53625
X57625Y-54625
T5
X40625Y-50175
X40625Y-51675
X40625Y-57625
X43025Y-57625
X55400Y-40800
X57800Y-40800
X57800Y-46750
X57800Y-48250
T6
X43701Y-54331
X43701Y-44094
X54724Y-54331
X54724Y-44094
T0
M30
