M48
INCH,TZ
T1C0.016
T2C0.039
T3C0.039
T4C0.047
T5C0.059
T6C0.138
%
G90
G05
T1
X42725Y-49725
X44400Y-46000
X46025Y-52325
X46300Y-40500
X46400Y-42500
X46725Y-49825
X47025Y-49825
X47325Y-50825
X47700Y-44000
X47900Y-42000
X48000Y-42500
X48200Y-47100
X48925Y-49925
X49500Y-48500
X50225Y-51325
X50425Y-55925
X50525Y-56425
X50725Y-54425
X51100Y-47600
X51400Y-48600
X51700Y-48600
X52025Y-55925
X52125Y-57925
X52400Y-46100
X54025Y-52425
X55700Y-48700
T2
X45625Y-52963
X45625Y-55325
X47200Y-52963
X47200Y-55325
X51225Y-43100
X51225Y-45462
X52800Y-43100
X52800Y-45462
T3
X43000Y-47000
X43000Y-48000
X55425Y-50425
X55425Y-51425
T4
X40285Y-50235
X40285Y-51735
X58140Y-46690
X58140Y-48190
T5
X40825Y-58025
X42825Y-58025
X55600Y-40400
X57600Y-40400
T6
X43096Y-54134
X43096Y-44291
X55329Y-54134
X55329Y-44291
T0
M30
